<svg xmlns="http://www.w3.org/2000/svg" width="16" height="17" viewBox="0 0 16 17" fill="none">
    <path d="M5.33335 5.16667V10.5C5.33335 11.2364 5.93031 11.8333 6.66669 11.8333H10.6667M5.33335 5.16667V3.83333C5.33335 3.09695 5.93031 2.5 6.66669 2.5H9.72388C9.90069 2.5 10.0703 2.57024 10.1953 2.69526L13.1381 5.63807C13.2631 5.7631 13.3334 5.93266 13.3334 6.10948V10.5C13.3334 11.2364 12.7364 11.8333 12 11.8333H10.6667M5.33335 5.16667H4.66669C3.56212 5.16667 2.66669 6.0621 2.66669 7.16667V13.1667C2.66669 13.903 3.26364 14.5 4.00002 14.5H8.66669C9.77126 14.5 10.6667 13.6046 10.6667 12.5V11.8333" stroke="currentColor" stroke-linecap="round" stroke-linejoin="round"/>
</svg>