<svg
          width="38"
          height="47"
          viewBox="0 0 38 47"
          fill="none"
          xmlns="http://www.w3.org/2000/svg"
        >
          <path
            d="M14.0833 45.625H31.2917C34.0071 45.625 36.2083 43.4237 36.2083 40.7083V17.1433C36.2083 16.4913 35.9493 15.866 35.4883 15.405L22.1784 2.09503C21.7173 1.634 21.092 1.375 20.4401 1.375H6.70833C3.99293 1.375 1.79167 3.57627 1.79167 6.29167V33.3333M1.79167 45.625L13.7851 33.6316M13.7851 33.6316C15.1197 34.9662 16.9634 35.7917 19 35.7917C23.0731 35.7917 26.375 32.4898 26.375 28.4167C26.375 24.3436 23.0731 21.0417 19 21.0417C14.9269 21.0417 11.625 24.3436 11.625 28.4167C11.625 30.4532 12.4505 32.297 13.7851 33.6316Z"
            stroke="currentColor"
            stroke-width="2"
            stroke-linecap="round"
          ></path>
        </svg>