<?xml version="1.0" encoding="UTF-8" standalone="no"?>
<svg
   width="4091.0137"
   height="1174.6492"
   viewBox="0 0 4091.0137 1174.6492"
   fill="none"
   version="1.1"
   id="svg1"
   sodipodi:docname="aibox-logo-text.svg"
   inkscape:version="1.3.2 (091e20ef0f, 2023-11-25, custom)"
   xmlns:inkscape="http://www.inkscape.org/namespaces/inkscape"
   xmlns:sodipodi="http://sodipodi.sourceforge.net/DTD/sodipodi-0.dtd"
   xmlns="http://www.w3.org/2000/svg"
   xmlns:svg="http://www.w3.org/2000/svg">
  <defs
     id="defs1" />
  <sodipodi:namedview
     id="namedview1"
     pagecolor="#ffffff"
     bordercolor="#000000"
     borderopacity="0.25"
     inkscape:showpageshadow="2"
     inkscape:pageopacity="0.0"
     inkscape:pagecheckerboard="0"
     inkscape:deskcolor="#d1d1d1"
     showgrid="false"
     inkscape:zoom="0.044870615"
     inkscape:cx="-5471.2867"
     inkscape:cy="-1381.7506"
     inkscape:window-width="1852"
     inkscape:window-height="1398"
     inkscape:window-x="2590"
     inkscape:window-y="30"
     inkscape:window-maximized="1"
     inkscape:current-layer="svg1"
     showguides="true">
    <sodipodi:guide
       position="-1585.8422,3010.6519"
       orientation="0,-1"
       id="guide1"
       inkscape:locked="false" />
    <sodipodi:guide
       position="-683.14367,-2336.5966"
       orientation="0,-1"
       id="guide2"
       inkscape:locked="false" />
  </sodipodi:namedview>
  <path
     d="M 506.215,0 0,293.66218 v 587.324 L 506.215,1174.6492 1012.43,880.98618 v -587.324 z m 0,160.75818 336.09,194.979 c -126.554,159.763 -317.275,253.671 -523.445,253.671 -61.593,0 -121.999,-8.356 -180.423,-24.869 v -210.498 l 367.58,-213.283 z m 0,853.13102 -367.58,-213.28202 v -72.421 c 58.821,13.529 119.226,20.493 180.423,20.493 209.933,0 406.794,-80.578 554.935,-221.639 v 273.567 l -367.58,213.28202 z"
     fill="#491eff"
     id="path1" />
  <path
     style="font-weight:bold;font-size:886.97px;font-family:Inter;-inkscape-font-specification:'Inter Bold';fill:#000000;stroke-width:1.29927"
     d="m 1477.7683,893.15782 q -69.2945,0 -115.2021,-36.37963 -45.9077,-36.81272 -45.9077,-108.70579 0,-54.13635 25.9855,-84.8858 25.9854,-30.74945 67.5622,-45.04144 41.5767,-14.292 89.2167,-18.62291 62.365,-6.06327 89.6498,-12.55963 27.7178,-6.92945 27.7178,-30.74945 v -2.16545 q 0,-30.74945 -19.9222,-47.63999 -19.4891,-16.89054 -55.8687,-16.89054 -37.6789,0 -60.6327,16.45745 -22.9538,16.02436 -30.7495,39.41126 l -119.0999,-19.92217 q 18.6229,-62.79817 74.0585,-97.44544 55.8687,-34.64726 136.8567,-34.64726 51.9709,0 98.7447,16.45745 47.2069,16.45745 76.6571,52.83708 29.8832,35.94654 29.8832,94.84688 v 326.11738 h -122.9978 v -67.12907 h -4.3309 q -17.7567,33.78108 -52.8371,55.43562 -35.0803,21.22145 -88.7836,21.22145 z m 36.8127,-91.38216 q 45.4746,0 74.0586,-26.41854 29.0171,-26.41854 29.0171,-64.96362 v -52.40399 q -7.7957,5.63018 -25.5524,9.96109 -17.3236,3.89782 -36.8127,7.36254 -19.4891,3.03164 -33.7811,4.764 -35.9465,5.19709 -58.0342,20.35527 -22.0876,15.15818 -22.0876,44.17526 0,28.15091 20.3553,42.87599 20.7883,14.292 52.837,14.292 z m 343.0079,81.85416 V 399.4343 h 129.9273 v 484.19552 z m 64.9637,-547.42678 q -29.4502,0 -50.2386,-19.48908 -20.7883,-19.48909 -20.7883,-47.2069 0,-27.71781 20.7883,-47.2069 20.7884,-19.48909 50.2386,-19.48909 29.4501,0 50.2385,19.48909 21.2214,19.48909 21.2214,47.2069 0,27.71781 -21.2214,47.2069 -20.7884,19.48908 -50.2385,19.48908 z m 446.5166,555.65551 q -39.4113,0 -66.696,-13.42582 -27.2847,-13.42581 -44.6083,-32.9149 -16.8906,-19.92218 -25.9855,-39.41126 h -6.0633 v 77.52325 h -127.7617 v -645.3053 h 129.9272 v 242.53085 h 3.8978 q 8.6618,-19.05599 25.1193,-39.41126 16.8905,-20.35527 44.1752,-34.21417 27.7179,-13.85891 68.8615,-13.85891 53.7032,0 98.3116,27.71781 44.6084,27.71781 71.0269,83.15344 26.8516,55.43562 26.8516,138.15596 0,80.55489 -25.9854,136.42361 -25.9855,55.43562 -70.5938,84.4527 -44.6084,28.584 -100.4771,28.584 z m -39.8443,-104.37489 q 50.6716,0 77.0901,-40.71053 26.8516,-40.71054 26.8516,-104.80798 0,-63.66435 -26.4185,-103.94179 -26.4185,-40.71054 -77.5232,-40.71054 -50.2386,0 -77.5233,39.41127 -26.8516,39.41126 -26.8516,105.24106 0,65.8298 27.2847,105.67416 27.2847,39.84435 77.0902,39.84435 z m 544.395,105.67416 q -72.7592,0 -126.0294,-31.18254 -53.2702,-31.61563 -82.2872,-87.48434 -28.584,-56.30181 -28.584,-130.79342 0,-74.92471 28.584,-131.22652 29.017,-56.3018 82.2872,-87.48434 53.2702,-31.61563 126.0294,-31.61563 72.7593,0 126.0295,31.61563 53.2701,31.18254 81.8541,87.48434 29.0171,56.30181 29.0171,131.22652 0,74.49161 -29.0171,130.79342 -28.584,55.86871 -81.8541,87.48434 -53.2702,31.18254 -126.0295,31.18254 z m 0,-102.20943 q 51.9709,0 78.3895,-42.00981 26.4185,-42.00981 26.4185,-105.67416 0,-64.09743 -26.4185,-105.67415 -26.4186,-42.00981 -78.3895,-42.00981 -51.9709,0 -78.3894,42.00981 -25.9854,41.57672 -25.9854,105.67415 0,63.66435 25.9854,105.67416 26.4185,42.00981 78.3894,42.00981 z M 3146.0341,883.62982 3301.9467,635.0357 3155.562,399.4343 h 140.3215 l 43.7421,76.22398 q 12.9928,24.25309 24.2531,48.07308 11.6935,23.38691 22.5207,46.34072 10.8273,-22.95381 22.0877,-46.77381 11.6934,-23.81999 25.5523,-47.63999 l 45.4746,-76.22398 h 137.7228 l -149.4163,237.33376 156.3458,246.86176 h -139.4552 l -53.7033,-91.38216 q -13.4258,-23.3869 -25.1193,-46.77381 -11.6934,-23.3869 -22.5207,-45.90762 -10.3942,22.52072 -21.6545,45.90762 -10.8273,23.38691 -24.2531,46.77381 l -53.7033,91.38216 z"
     id="text1"
     aria-label="aibox" />
</svg>
